<svg width="307" height="79" viewBox="0 0 307 79" fill="none" xmlns="http://www.w3.org/2000/svg">
<path d="M76 36.9934H91.8671V23.0464H85.8844L104.613 6L121 23.0464H115.538V36.9934V45" stroke="white" stroke-width="4"/>
<path d="M120 23.5099H127.052V17.4305H124.393L132.717 10L140 17.4305H137.572V23.5099V27" stroke="white" stroke-width="3"/>
<path d="M0 63H30.5V36H19L55 3L86.5 36H76V63V78.5" stroke="white" stroke-width="4"/>
<circle cx="53.5" cy="35.5" r="6.5" fill="black"/>
<path d="M51.3655 41.5H55.8655L59.3655 54.5H47.8655L51.3655 41.5Z" fill="black"/>
<path d="M127.09 37.804C127.025 38.42 126.992 38.9613 126.992 39.428C126.992 39.792 127.006 40.0813 127.034 40.296H126.712C126.665 39.6893 126.6 39.2367 126.516 38.938C126.432 38.6393 126.297 38.4247 126.11 38.294C125.923 38.154 125.639 38.084 125.256 38.084H124.654C124.309 38.084 124.066 38.1587 123.926 38.308C123.795 38.4573 123.73 38.7233 123.73 39.106V43.558C123.73 43.9873 123.851 44.286 124.094 44.454C124.346 44.622 124.719 44.706 125.214 44.706V45L124.878 44.986C123.926 44.958 123.319 44.944 123.058 44.944C122.815 44.944 122.265 44.9627 121.406 45V44.706C121.798 44.706 122.073 44.636 122.232 44.496C122.391 44.3467 122.47 44.0807 122.47 43.698V39.106C122.47 38.7233 122.391 38.462 122.232 38.322C122.073 38.1727 121.798 38.098 121.406 38.098V37.804C122.265 37.8413 122.825 37.86 123.086 37.86C123.301 37.86 123.623 37.8507 124.052 37.832C124.444 37.8133 124.729 37.804 124.906 37.804H127.09ZM134.477 38.098C134.085 38.098 133.81 38.1727 133.651 38.322C133.493 38.462 133.413 38.7233 133.413 39.106V43.698C133.413 44.0807 133.493 44.3467 133.651 44.496C133.81 44.636 134.085 44.706 134.477 44.706V45C133.619 44.9627 133.049 44.944 132.769 44.944C132.555 44.944 132.013 44.958 131.145 44.986L130.809 45V44.706C131.257 44.706 131.593 44.636 131.817 44.496C132.041 44.3467 132.153 44.0807 132.153 43.698V39.106C132.153 38.7233 132.083 38.462 131.943 38.322C131.813 38.1727 131.575 38.098 131.229 38.098H131.103C130.879 38.098 130.725 38.168 130.641 38.308C130.567 38.4387 130.511 38.7047 130.473 39.106C130.371 40.2167 130.263 41.1267 130.151 41.836C130.049 42.536 129.885 43.166 129.661 43.726C129.26 44.706 128.733 45.196 128.079 45.196C127.809 45.196 127.575 45.1213 127.379 44.972C127.193 44.8227 127.099 44.6173 127.099 44.356C127.099 44.132 127.169 43.9547 127.309 43.824C127.449 43.684 127.631 43.614 127.855 43.614C128.061 43.614 128.229 43.6747 128.359 43.796C128.49 43.908 128.555 44.0713 128.555 44.286C128.555 44.6127 128.378 44.8413 128.023 44.972C128.042 44.9813 128.089 44.986 128.163 44.986C128.462 44.986 128.714 44.8507 128.919 44.58C129.134 44.3093 129.307 44.0013 129.437 43.656C129.811 42.6947 130.072 41.178 130.221 39.106C130.249 38.7327 130.17 38.4713 129.983 38.322C129.806 38.1727 129.517 38.098 129.115 38.098V37.804C129.526 37.8413 129.843 37.86 130.067 37.86H131.257H132.783C133.054 37.86 133.619 37.8413 134.477 37.804V38.098ZM137.732 45.098C137.144 45.098 136.705 44.9533 136.416 44.664C136.136 44.3653 135.996 43.9547 135.996 43.432C135.996 43.012 136.108 42.6667 136.332 42.396C136.565 42.1253 136.836 41.9107 137.144 41.752C137.461 41.5933 137.877 41.4253 138.39 41.248C138.913 41.0707 139.3 40.9073 139.552 40.758C139.804 40.6087 139.93 40.408 139.93 40.156V39.288C139.93 38.7467 139.813 38.378 139.58 38.182C139.356 37.9767 139.039 37.874 138.628 37.874C137.975 37.874 137.513 38.042 137.242 38.378C137.429 38.4247 137.583 38.5227 137.704 38.672C137.835 38.8213 137.9 39.008 137.9 39.232C137.9 39.4653 137.825 39.652 137.676 39.792C137.527 39.9227 137.335 39.988 137.102 39.988C136.841 39.988 136.645 39.9087 136.514 39.75C136.383 39.582 136.318 39.3813 136.318 39.148C136.318 38.924 136.369 38.7373 136.472 38.588C136.584 38.4387 136.747 38.2893 136.962 38.14C137.186 37.9813 137.471 37.8507 137.816 37.748C138.161 37.6453 138.539 37.594 138.95 37.594C139.678 37.594 140.229 37.7667 140.602 38.112C140.835 38.3267 140.989 38.588 141.064 38.896C141.148 39.1947 141.19 39.5913 141.19 40.086V43.978C141.19 44.2113 141.223 44.3793 141.288 44.482C141.353 44.5847 141.465 44.636 141.624 44.636C141.736 44.636 141.839 44.6127 141.932 44.566C142.035 44.51 142.142 44.4353 142.254 44.342L142.408 44.58C142.165 44.7667 141.955 44.902 141.778 44.986C141.61 45.0607 141.395 45.098 141.134 45.098C140.686 45.098 140.373 44.986 140.196 44.762C140.019 44.538 139.93 44.2347 139.93 43.852C139.65 44.3187 139.328 44.6453 138.964 44.832C138.6 45.0093 138.189 45.098 137.732 45.098ZM138.348 44.538C138.964 44.538 139.491 44.1833 139.93 43.474V40.73C139.846 40.8607 139.729 40.968 139.58 41.052C139.431 41.136 139.202 41.248 138.894 41.388C138.539 41.5373 138.25 41.682 138.026 41.822C137.811 41.9527 137.625 42.1347 137.466 42.368C137.307 42.6013 137.228 42.9 137.228 43.264C137.228 43.684 137.331 44.0013 137.536 44.216C137.741 44.4307 138.012 44.538 138.348 44.538ZM147.505 41.248C148.401 41.2947 149.049 41.4627 149.451 41.752C149.852 42.0413 150.053 42.4473 150.053 42.97C150.053 43.5767 149.801 44.0667 149.297 44.44C148.802 44.8133 148.009 45 146.917 45C146.739 45 146.455 44.9907 146.063 44.972C145.633 44.9533 145.293 44.944 145.041 44.944C144.798 44.944 144.247 44.9627 143.389 45V44.706C143.781 44.706 144.056 44.636 144.215 44.496C144.373 44.3467 144.453 44.0807 144.453 43.698V39.106C144.453 38.7233 144.373 38.462 144.215 38.322C144.056 38.1727 143.781 38.098 143.389 38.098V37.804C144.247 37.8413 144.798 37.86 145.041 37.86C145.293 37.86 145.643 37.8507 146.091 37.832C146.464 37.8133 146.725 37.804 146.875 37.804C147.855 37.804 148.555 37.9533 148.975 38.252C149.395 38.5413 149.605 38.9567 149.605 39.498C149.605 39.918 149.423 40.2867 149.059 40.604C148.704 40.9213 148.186 41.136 147.505 41.248ZM146.735 38.098C146.352 38.098 146.086 38.1727 145.937 38.322C145.787 38.4713 145.713 38.7327 145.713 39.106V41.206H146.273C146.823 41.1967 147.243 41.136 147.533 41.024C147.831 40.9027 148.037 40.73 148.149 40.506C148.261 40.282 148.317 39.9833 148.317 39.61C148.317 39.1247 148.205 38.7513 147.981 38.49C147.757 38.2287 147.341 38.098 146.735 38.098ZM146.777 44.706C147.505 44.706 148.013 44.552 148.303 44.244C148.592 43.9267 148.737 43.5067 148.737 42.984C148.737 42.424 148.583 42.0273 148.275 41.794C147.967 41.5607 147.533 41.444 146.973 41.444H145.713V43.698C145.713 44.09 145.787 44.356 145.937 44.496C146.095 44.636 146.375 44.706 146.777 44.706ZM159.333 38.098C158.941 38.098 158.666 38.1727 158.507 38.322C158.349 38.462 158.269 38.7233 158.269 39.106V43.698C158.269 44.0807 158.349 44.3467 158.507 44.496C158.666 44.636 158.941 44.706 159.333 44.706V45C158.475 44.9627 157.915 44.944 157.653 44.944C157.392 44.944 156.869 44.9627 156.085 45V44.706C156.431 44.706 156.669 44.636 156.799 44.496C156.939 44.3467 157.009 44.0807 157.009 43.698V41.43H153.915V43.698C153.915 44.0807 153.981 44.3467 154.111 44.496C154.251 44.636 154.494 44.706 154.839 44.706V45C154.055 44.9627 153.533 44.944 153.271 44.944C153.01 44.944 152.45 44.9627 151.591 45V44.706C151.983 44.706 152.259 44.636 152.417 44.496C152.576 44.3467 152.655 44.0807 152.655 43.698V39.106C152.655 38.7233 152.576 38.462 152.417 38.322C152.259 38.1727 151.983 38.098 151.591 38.098V37.804C152.45 37.8413 153.01 37.86 153.271 37.86C153.533 37.86 154.055 37.8413 154.839 37.804V38.098C154.494 38.098 154.251 38.1727 154.111 38.322C153.981 38.462 153.915 38.7233 153.915 39.106V41.15H157.009V39.106C157.009 38.7233 156.939 38.462 156.799 38.322C156.669 38.1727 156.431 38.098 156.085 38.098V37.804C156.869 37.8413 157.392 37.86 157.653 37.86C157.915 37.86 158.475 37.8413 159.333 37.804V38.098ZM164.14 37.594C165.092 37.594 165.857 37.9113 166.436 38.546C167.024 39.1713 167.318 40.1233 167.318 41.402C167.318 42.6807 167.024 43.6327 166.436 44.258C165.857 44.8833 165.092 45.196 164.14 45.196C163.188 45.196 162.418 44.8833 161.83 44.258C161.251 43.6327 160.962 42.6807 160.962 41.402C160.962 40.1233 161.251 39.1713 161.83 38.546C162.418 37.9113 163.188 37.594 164.14 37.594ZM164.14 37.874C163.58 37.874 163.137 38.1633 162.81 38.742C162.483 39.3113 162.32 40.198 162.32 41.402C162.32 42.606 162.483 43.4927 162.81 44.062C163.137 44.6313 163.58 44.916 164.14 44.916C164.7 44.916 165.143 44.6313 165.47 44.062C165.797 43.4927 165.96 42.606 165.96 41.402C165.96 40.198 165.797 39.3113 165.47 38.742C165.143 38.1633 164.7 37.874 164.14 37.874ZM175.016 43.32C174.848 43.8333 174.53 44.2767 174.064 44.65C173.606 45.014 173.051 45.196 172.398 45.196C171.735 45.196 171.161 45.0467 170.676 44.748C170.19 44.44 169.817 44.0153 169.556 43.474C169.304 42.9233 169.178 42.2887 169.178 41.57C169.178 40.758 169.308 40.0533 169.57 39.456C169.831 38.8587 170.2 38.4013 170.676 38.084C171.152 37.7573 171.707 37.594 172.342 37.594C173.182 37.594 173.826 37.8507 174.274 38.364C174.731 38.868 174.96 39.638 174.96 40.674H170.578C170.55 40.9353 170.536 41.234 170.536 41.57C170.536 42.186 170.634 42.7227 170.83 43.18C171.035 43.6373 171.301 43.992 171.628 44.244C171.964 44.4867 172.314 44.608 172.678 44.608C173.126 44.608 173.522 44.5007 173.868 44.286C174.213 44.0713 174.502 43.712 174.736 43.208L175.016 43.32ZM172.286 37.86C171.847 37.86 171.469 38.0747 171.152 38.504C170.834 38.9333 170.638 39.568 170.564 40.408H173.616C173.634 39.68 173.527 39.0733 173.294 38.588C173.07 38.1027 172.734 37.86 172.286 37.86ZM183.736 37.594C184.362 37.594 184.861 37.748 185.234 38.056C185.608 38.3547 185.794 38.7467 185.794 39.232C185.785 39.7547 185.57 40.17 185.15 40.478C184.74 40.786 184.245 41.01 183.666 41.15C184.46 41.178 185.08 41.3507 185.528 41.668C185.976 41.9853 186.2 42.4333 186.2 43.012C186.2 43.4413 186.06 43.824 185.78 44.16C185.51 44.4867 185.141 44.7433 184.674 44.93C184.217 45.1073 183.718 45.196 183.176 45.196C182.476 45.196 181.874 45.028 181.37 44.692C180.932 44.4027 180.712 44.076 180.712 43.712C180.712 43.488 180.782 43.306 180.922 43.166C181.062 43.026 181.24 42.956 181.454 42.956C181.678 42.956 181.86 43.026 182 43.166C182.15 43.2967 182.224 43.4787 182.224 43.712C182.224 43.908 182.168 44.0667 182.056 44.188C181.954 44.3093 181.814 44.3887 181.636 44.426C181.72 44.566 181.916 44.692 182.224 44.804C182.542 44.9067 182.864 44.958 183.19 44.958C183.741 44.958 184.166 44.79 184.464 44.454C184.763 44.118 184.912 43.6747 184.912 43.124C184.912 42.592 184.777 42.1533 184.506 41.808C184.245 41.4627 183.89 41.2853 183.442 41.276C183.218 41.3973 183.022 41.458 182.854 41.458C182.649 41.458 182.546 41.3787 182.546 41.22C182.546 41.0707 182.654 40.996 182.868 40.996C182.999 40.996 183.195 41.024 183.456 41.08C184.184 40.8653 184.548 40.3053 184.548 39.4C184.548 38.924 184.455 38.5507 184.268 38.28C184.091 38 183.82 37.86 183.456 37.86C183.12 37.86 182.794 37.9627 182.476 38.168C182.168 38.3733 181.921 38.6627 181.734 39.036C181.548 39.4 181.459 39.8153 181.468 40.282H181.146C181.156 40.0767 181.16 39.792 181.16 39.428C181.16 38.952 181.132 38.378 181.076 37.706H181.398C181.426 37.9207 181.464 38.0793 181.51 38.182C181.557 38.2753 181.622 38.322 181.706 38.322C181.781 38.322 181.94 38.2427 182.182 38.084C182.406 37.9347 182.635 37.818 182.868 37.734C183.102 37.6407 183.391 37.594 183.736 37.594ZM195.465 38.098C195.073 38.098 194.798 38.1727 194.639 38.322C194.481 38.462 194.401 38.7233 194.401 39.106V43.698C194.401 44.0807 194.481 44.3467 194.639 44.496C194.798 44.636 195.073 44.706 195.465 44.706V45C194.607 44.9627 194.047 44.944 193.785 44.944C193.524 44.944 193.001 44.9627 192.217 45V44.706C192.563 44.706 192.801 44.636 192.931 44.496C193.071 44.3467 193.141 44.0807 193.141 43.698V41.43H190.047V43.698C190.047 44.0807 190.113 44.3467 190.243 44.496C190.383 44.636 190.626 44.706 190.971 44.706V45C190.187 44.9627 189.665 44.944 189.403 44.944C189.142 44.944 188.582 44.9627 187.723 45V44.706C188.115 44.706 188.391 44.636 188.549 44.496C188.708 44.3467 188.787 44.0807 188.787 43.698V39.106C188.787 38.7233 188.708 38.462 188.549 38.322C188.391 38.1727 188.115 38.098 187.723 38.098V37.804C188.582 37.8413 189.142 37.86 189.403 37.86C189.665 37.86 190.187 37.8413 190.971 37.804V38.098C190.626 38.098 190.383 38.1727 190.243 38.322C190.113 38.462 190.047 38.7233 190.047 39.106V41.15H193.141V39.106C193.141 38.7233 193.071 38.462 192.931 38.322C192.801 38.1727 192.563 38.098 192.217 38.098V37.804C193.001 37.8413 193.524 37.86 193.785 37.86C194.047 37.86 194.607 37.8413 195.465 37.804V38.098ZM198.718 45.098C198.13 45.098 197.691 44.9533 197.402 44.664C197.122 44.3653 196.982 43.9547 196.982 43.432C196.982 43.012 197.094 42.6667 197.318 42.396C197.551 42.1253 197.822 41.9107 198.13 41.752C198.447 41.5933 198.863 41.4253 199.376 41.248C199.899 41.0707 200.286 40.9073 200.538 40.758C200.79 40.6087 200.916 40.408 200.916 40.156V39.288C200.916 38.7467 200.799 38.378 200.566 38.182C200.342 37.9767 200.025 37.874 199.614 37.874C198.961 37.874 198.499 38.042 198.228 38.378C198.415 38.4247 198.569 38.5227 198.69 38.672C198.821 38.8213 198.886 39.008 198.886 39.232C198.886 39.4653 198.811 39.652 198.662 39.792C198.513 39.9227 198.321 39.988 198.088 39.988C197.827 39.988 197.631 39.9087 197.5 39.75C197.369 39.582 197.304 39.3813 197.304 39.148C197.304 38.924 197.355 38.7373 197.458 38.588C197.57 38.4387 197.733 38.2893 197.948 38.14C198.172 37.9813 198.457 37.8507 198.802 37.748C199.147 37.6453 199.525 37.594 199.936 37.594C200.664 37.594 201.215 37.7667 201.588 38.112C201.821 38.3267 201.975 38.588 202.05 38.896C202.134 39.1947 202.176 39.5913 202.176 40.086V43.978C202.176 44.2113 202.209 44.3793 202.274 44.482C202.339 44.5847 202.451 44.636 202.61 44.636C202.722 44.636 202.825 44.6127 202.918 44.566C203.021 44.51 203.128 44.4353 203.24 44.342L203.394 44.58C203.151 44.7667 202.941 44.902 202.764 44.986C202.596 45.0607 202.381 45.098 202.12 45.098C201.672 45.098 201.359 44.986 201.182 44.762C201.005 44.538 200.916 44.2347 200.916 43.852C200.636 44.3187 200.314 44.6453 199.95 44.832C199.586 45.0093 199.175 45.098 198.718 45.098ZM199.334 44.538C199.95 44.538 200.477 44.1833 200.916 43.474V40.73C200.832 40.8607 200.715 40.968 200.566 41.052C200.417 41.136 200.188 41.248 199.88 41.388C199.525 41.5373 199.236 41.682 199.012 41.822C198.797 41.9527 198.611 42.1347 198.452 42.368C198.293 42.6013 198.214 42.9 198.214 43.264C198.214 43.684 198.317 44.0013 198.522 44.216C198.727 44.4307 198.998 44.538 199.334 44.538ZM211.277 37.804C211.211 38.42 211.179 38.9613 211.179 39.428C211.179 39.792 211.193 40.0813 211.221 40.296H210.899C210.852 39.6707 210.754 39.1993 210.605 38.882C210.465 38.5647 210.269 38.3547 210.017 38.252C209.774 38.14 209.443 38.084 209.023 38.084H208.477V43.558C208.477 43.9873 208.598 44.286 208.841 44.454C209.093 44.622 209.466 44.706 209.961 44.706V45L209.611 44.986C208.687 44.958 208.099 44.944 207.847 44.944C207.595 44.944 207.007 44.958 206.083 44.986L205.733 45V44.706C206.227 44.706 206.596 44.622 206.839 44.454C207.091 44.286 207.217 43.9873 207.217 43.558V38.084H206.531C206.12 38.084 205.803 38.14 205.579 38.252C205.355 38.3547 205.177 38.5647 205.047 38.882C204.925 39.1993 204.841 39.6753 204.795 40.31H204.473C204.501 40.0953 204.515 39.806 204.515 39.442C204.515 38.9753 204.482 38.434 204.417 37.818H205.761C206.19 37.818 206.517 37.8227 206.741 37.832L207.833 37.846C208.085 37.846 208.453 37.8367 208.939 37.818L209.933 37.804H211.277ZM216.369 40.8C217.339 40.8 218.049 40.982 218.497 41.346C218.954 41.7007 219.183 42.186 219.183 42.802C219.183 43.1753 219.08 43.53 218.875 43.866C218.669 44.1927 218.338 44.4633 217.881 44.678C217.433 44.8927 216.859 45 216.159 45C216.009 45 215.739 44.9907 215.347 44.972C214.917 44.9533 214.572 44.944 214.311 44.944C214.068 44.944 213.517 44.9627 212.659 45V44.706C213.051 44.706 213.326 44.636 213.485 44.496C213.643 44.3467 213.723 44.0807 213.723 43.698V39.106C213.723 38.7233 213.653 38.462 213.513 38.322C213.382 38.1727 213.144 38.098 212.799 38.098V37.804C213.583 37.8413 214.105 37.86 214.367 37.86C214.628 37.86 215.188 37.8413 216.047 37.804V38.098C215.655 38.098 215.379 38.1727 215.221 38.322C215.062 38.462 214.983 38.7233 214.983 39.106V40.8H216.369ZM216.005 44.706C216.695 44.706 217.176 44.5427 217.447 44.216C217.727 43.88 217.867 43.4367 217.867 42.886C217.867 42.242 217.685 41.7753 217.321 41.486C216.957 41.1873 216.364 41.038 215.543 41.038H214.983V43.698C214.983 44.0713 215.057 44.3327 215.207 44.482C215.356 44.6313 215.622 44.706 216.005 44.706ZM221.905 43.404C222.269 43.404 222.545 43.5533 222.731 43.852C222.89 44.104 222.969 44.412 222.969 44.776C222.969 45.2427 222.848 45.6627 222.605 46.036C222.372 46.4093 222.013 46.708 221.527 46.932L221.401 46.68C221.691 46.5587 221.938 46.3673 222.143 46.106C222.358 45.8447 222.465 45.5787 222.465 45.308C222.465 45.196 222.451 45.098 222.423 45.014C222.274 45.1353 222.101 45.196 221.905 45.196C221.653 45.196 221.439 45.1167 221.261 44.958C221.093 44.79 221.009 44.5707 221.009 44.3C221.009 44.048 221.093 43.838 221.261 43.67C221.439 43.4927 221.653 43.404 221.905 43.404ZM234.488 37.804C234.423 38.42 234.39 38.9613 234.39 39.428C234.39 39.792 234.404 40.0813 234.432 40.296H234.11C234.063 39.6893 233.998 39.2367 233.914 38.938C233.83 38.6393 233.695 38.4247 233.508 38.294C233.321 38.154 233.037 38.084 232.654 38.084H232.052C231.707 38.084 231.464 38.1587 231.324 38.308C231.193 38.4573 231.128 38.7233 231.128 39.106V43.558C231.128 43.9873 231.249 44.286 231.492 44.454C231.744 44.622 232.117 44.706 232.612 44.706V45L232.276 44.986C231.324 44.958 230.717 44.944 230.456 44.944C230.213 44.944 229.663 44.9627 228.804 45V44.706C229.196 44.706 229.471 44.636 229.63 44.496C229.789 44.3467 229.868 44.0807 229.868 43.698V39.106C229.868 38.7233 229.789 38.462 229.63 38.322C229.471 38.1727 229.196 38.098 228.804 38.098V37.804C229.663 37.8413 230.223 37.86 230.484 37.86C230.699 37.86 231.021 37.8507 231.45 37.832C231.842 37.8133 232.127 37.804 232.304 37.804H234.488ZM241.783 44.706C241.718 45.322 241.685 45.8633 241.685 46.33C241.685 46.7033 241.699 46.9927 241.727 47.198H241.405C241.349 46.5913 241.279 46.134 241.195 45.826C241.12 45.5273 240.99 45.3033 240.803 45.154C240.616 45.014 240.332 44.944 239.949 44.944L238.927 44.958C238.423 44.986 237.676 45 236.687 45C236.304 45 236.02 45.0653 235.833 45.196C235.646 45.336 235.511 45.5507 235.427 45.84C235.343 46.1387 235.278 46.5913 235.231 47.198H234.909C234.937 46.9927 234.951 46.7033 234.951 46.33C234.951 45.8633 234.918 45.322 234.853 44.706H235.119C235.39 44.706 235.623 44.608 235.819 44.412C236.024 44.2067 236.183 43.9547 236.295 43.656C236.51 43.096 236.673 42.4427 236.785 41.696C236.906 40.94 237.004 40.0767 237.079 39.106C237.107 38.7327 237.028 38.4713 236.841 38.322C236.664 38.1727 236.374 38.098 235.973 38.098V37.804C236.384 37.8413 236.701 37.86 236.925 37.86C237.074 37.86 237.308 37.8507 237.625 37.832C237.961 37.8133 238.222 37.804 238.409 37.804C238.568 37.804 238.796 37.8133 239.095 37.832C239.431 37.8507 239.711 37.86 239.935 37.86C240.206 37.86 240.77 37.8413 241.629 37.804V38.098C241.237 38.098 240.962 38.1727 240.803 38.322C240.644 38.462 240.565 38.7233 240.565 39.106V43.698C240.565 43.9687 240.598 44.174 240.663 44.314C240.728 44.454 240.845 44.5567 241.013 44.622C241.181 44.678 241.438 44.706 241.783 44.706ZM239.305 39.106C239.305 38.7233 239.235 38.462 239.095 38.322C238.964 38.1727 238.726 38.098 238.381 38.098H238.255C237.919 38.098 237.69 38.168 237.569 38.308C237.448 38.448 237.368 38.714 237.331 39.106C237.247 40.142 237.149 41.0333 237.037 41.78C236.925 42.5267 236.752 43.1753 236.519 43.726C236.323 44.1927 236.09 44.5193 235.819 44.706H238.381C238.726 44.706 238.964 44.636 239.095 44.496C239.235 44.3467 239.305 44.0807 239.305 43.698V39.106ZM249.139 43.32C248.971 43.8333 248.653 44.2767 248.187 44.65C247.729 45.014 247.174 45.196 246.521 45.196C245.858 45.196 245.284 45.0467 244.799 44.748C244.313 44.44 243.94 44.0153 243.679 43.474C243.427 42.9233 243.301 42.2887 243.301 41.57C243.301 40.758 243.431 40.0533 243.693 39.456C243.954 38.8587 244.323 38.4013 244.799 38.084C245.275 37.7573 245.83 37.594 246.465 37.594C247.305 37.594 247.949 37.8507 248.397 38.364C248.854 38.868 249.083 39.638 249.083 40.674H244.701C244.673 40.9353 244.659 41.234 244.659 41.57C244.659 42.186 244.757 42.7227 244.953 43.18C245.158 43.6373 245.424 43.992 245.751 44.244C246.087 44.4867 246.437 44.608 246.801 44.608C247.249 44.608 247.645 44.5007 247.991 44.286C248.336 44.0713 248.625 43.712 248.859 43.208L249.139 43.32ZM246.409 37.86C245.97 37.86 245.592 38.0747 245.275 38.504C244.957 38.9333 244.761 39.568 244.687 40.408H247.739C247.757 39.68 247.65 39.0733 247.417 38.588C247.193 38.1027 246.857 37.86 246.409 37.86ZM262.703 38.098C262.311 38.098 262.036 38.1727 261.877 38.322C261.718 38.462 261.639 38.7233 261.639 39.106V43.698C261.639 44.0807 261.718 44.3467 261.877 44.496C262.036 44.636 262.311 44.706 262.703 44.706V45C261.844 44.9627 261.284 44.944 261.023 44.944C260.762 44.944 260.239 44.9627 259.455 45V44.706C259.8 44.706 260.038 44.636 260.169 44.496C260.309 44.3467 260.379 44.0807 260.379 43.698V39.442L257.089 43.992C257.117 44.2533 257.201 44.44 257.341 44.552C257.481 44.6547 257.7 44.706 257.999 44.706V45C257.215 44.9627 256.692 44.944 256.431 44.944C256.17 44.944 255.61 44.9627 254.751 45V44.706C255.143 44.706 255.418 44.636 255.577 44.496C255.736 44.3467 255.815 44.0807 255.815 43.698V39.106C255.815 38.7233 255.736 38.462 255.577 38.322C255.418 38.1727 255.143 38.098 254.751 38.098V37.804C255.61 37.8413 256.17 37.86 256.431 37.86C256.692 37.86 257.215 37.8413 257.999 37.804V38.098C257.654 38.098 257.411 38.1727 257.271 38.322C257.14 38.462 257.075 38.7233 257.075 39.106V43.53L260.379 38.98C260.37 38.644 260.295 38.4153 260.155 38.294C260.015 38.1633 259.782 38.098 259.455 38.098V37.804C260.239 37.8413 260.762 37.86 261.023 37.86C261.284 37.86 261.844 37.8413 262.703 37.804V38.098ZM267.575 37.594C268.2 37.594 268.741 37.7433 269.199 38.042C269.637 38.3313 269.857 38.6907 269.857 39.12C269.857 39.3627 269.787 39.554 269.647 39.694C269.507 39.834 269.329 39.904 269.115 39.904C268.9 39.904 268.718 39.8433 268.569 39.722C268.419 39.5913 268.345 39.4187 268.345 39.204C268.345 39.008 268.401 38.8447 268.513 38.714C268.625 38.574 268.765 38.4807 268.933 38.434C268.839 38.266 268.671 38.126 268.429 38.014C268.195 37.902 267.943 37.846 267.673 37.846C267.327 37.846 267.005 37.958 266.707 38.182C266.408 38.3967 266.161 38.7607 265.965 39.274C265.769 39.778 265.671 40.4453 265.671 41.276C265.671 42.4333 265.857 43.278 266.231 43.81C266.604 44.3327 267.089 44.594 267.687 44.594C268.088 44.594 268.466 44.4773 268.821 44.244C269.185 44.0107 269.483 43.6467 269.717 43.152L269.983 43.25C269.824 43.782 269.525 44.2393 269.087 44.622C268.657 45.0047 268.097 45.196 267.407 45.196C266.828 45.196 266.301 45.0467 265.825 44.748C265.358 44.4493 264.989 44.02 264.719 43.46C264.448 42.8907 264.313 42.2327 264.313 41.486C264.313 40.73 264.448 40.058 264.719 39.47C264.999 38.882 265.386 38.4247 265.881 38.098C266.375 37.762 266.94 37.594 267.575 37.594ZM277.771 43.936C277.883 44.188 278.009 44.3747 278.149 44.496C278.289 44.608 278.495 44.678 278.765 44.706V45C278.411 45.0653 278.121 45.098 277.897 45.098C277.505 45.098 277.207 45.0093 277.001 44.832C276.796 44.6453 276.637 44.3607 276.525 43.978C276.507 43.9127 276.46 43.7447 276.385 43.474C276.311 43.2033 276.222 42.9467 276.119 42.704C276.017 42.452 275.905 42.242 275.783 42.074C275.587 41.8033 275.331 41.6213 275.013 41.528C274.705 41.4253 274.29 41.3833 273.767 41.402V43.698C273.767 44.0807 273.833 44.3467 273.963 44.496C274.103 44.636 274.346 44.706 274.691 44.706V45C273.907 44.9627 273.38 44.944 273.109 44.944C272.857 44.944 272.302 44.9627 271.443 45V44.706C271.835 44.706 272.111 44.636 272.269 44.496C272.428 44.3467 272.507 44.0807 272.507 43.698V39.106C272.507 38.7233 272.428 38.462 272.269 38.322C272.111 38.1727 271.835 38.098 271.443 38.098V37.804C272.302 37.8413 272.857 37.86 273.109 37.86C273.38 37.86 273.907 37.8413 274.691 37.804V38.098C274.346 38.098 274.103 38.1727 273.963 38.322C273.833 38.462 273.767 38.7233 273.767 39.106V41.164C274.243 41.136 274.617 41.052 274.887 40.912C275.167 40.7627 275.377 40.5713 275.517 40.338C275.667 40.1047 275.811 39.7827 275.951 39.372C276.082 38.98 276.199 38.672 276.301 38.448C276.413 38.224 276.572 38.028 276.777 37.86C276.992 37.6827 277.267 37.594 277.603 37.594C277.911 37.594 278.135 37.6687 278.275 37.818C278.425 37.9673 278.499 38.1493 278.499 38.364C278.499 38.5787 278.429 38.756 278.289 38.896C278.159 39.036 277.981 39.106 277.757 39.106C277.505 39.106 277.305 39.0267 277.155 38.868C277.015 38.7 276.945 38.4807 276.945 38.21V38.112C276.805 38.1773 276.684 38.308 276.581 38.504C276.488 38.7 276.339 39.0687 276.133 39.61C275.975 40.03 275.807 40.3613 275.629 40.604C275.461 40.8467 275.209 41.024 274.873 41.136C275.387 41.1547 275.821 41.2387 276.175 41.388C276.53 41.528 276.815 41.766 277.029 42.102C277.132 42.27 277.23 42.4847 277.323 42.746C277.426 43.0073 277.491 43.1753 277.519 43.25C277.613 43.5393 277.697 43.768 277.771 43.936ZM281.891 45.098C281.303 45.098 280.864 44.9533 280.575 44.664C280.295 44.3653 280.155 43.9547 280.155 43.432C280.155 43.012 280.267 42.6667 280.491 42.396C280.724 42.1253 280.995 41.9107 281.303 41.752C281.62 41.5933 282.036 41.4253 282.549 41.248C283.072 41.0707 283.459 40.9073 283.711 40.758C283.963 40.6087 284.089 40.408 284.089 40.156V39.288C284.089 38.7467 283.972 38.378 283.739 38.182C283.515 37.9767 283.198 37.874 282.787 37.874C282.134 37.874 281.672 38.042 281.401 38.378C281.588 38.4247 281.742 38.5227 281.863 38.672C281.994 38.8213 282.059 39.008 282.059 39.232C282.059 39.4653 281.984 39.652 281.835 39.792C281.686 39.9227 281.494 39.988 281.261 39.988C281 39.988 280.804 39.9087 280.673 39.75C280.542 39.582 280.477 39.3813 280.477 39.148C280.477 38.924 280.528 38.7373 280.631 38.588C280.743 38.4387 280.906 38.2893 281.121 38.14C281.345 37.9813 281.63 37.8507 281.975 37.748C282.32 37.6453 282.698 37.594 283.109 37.594C283.837 37.594 284.388 37.7667 284.761 38.112C284.994 38.3267 285.148 38.588 285.223 38.896C285.307 39.1947 285.349 39.5913 285.349 40.086V43.978C285.349 44.2113 285.382 44.3793 285.447 44.482C285.512 44.5847 285.624 44.636 285.783 44.636C285.895 44.636 285.998 44.6127 286.091 44.566C286.194 44.51 286.301 44.4353 286.413 44.342L286.567 44.58C286.324 44.7667 286.114 44.902 285.937 44.986C285.769 45.0607 285.554 45.098 285.293 45.098C284.845 45.098 284.532 44.986 284.355 44.762C284.178 44.538 284.089 44.2347 284.089 43.852C283.809 44.3187 283.487 44.6453 283.123 44.832C282.759 45.0093 282.348 45.098 281.891 45.098ZM282.507 44.538C283.123 44.538 283.65 44.1833 284.089 43.474V40.73C284.005 40.8607 283.888 40.968 283.739 41.052C283.59 41.136 283.361 41.248 283.053 41.388C282.698 41.5373 282.409 41.682 282.185 41.822C281.97 41.9527 281.784 42.1347 281.625 42.368C281.466 42.6013 281.387 42.9 281.387 43.264C281.387 43.684 281.49 44.0013 281.695 44.216C281.9 44.4307 282.171 44.538 282.507 44.538ZM294.45 37.804C294.384 38.42 294.352 38.9613 294.352 39.428C294.352 39.792 294.366 40.0813 294.394 40.296H294.072C294.025 39.6707 293.927 39.1993 293.778 38.882C293.638 38.5647 293.442 38.3547 293.19 38.252C292.947 38.14 292.616 38.084 292.196 38.084H291.65V43.558C291.65 43.9873 291.771 44.286 292.014 44.454C292.266 44.622 292.639 44.706 293.134 44.706V45L292.784 44.986C291.86 44.958 291.272 44.944 291.02 44.944C290.768 44.944 290.18 44.958 289.256 44.986L288.906 45V44.706C289.4 44.706 289.769 44.622 290.012 44.454C290.264 44.286 290.39 43.9873 290.39 43.558V38.084H289.704C289.293 38.084 288.976 38.14 288.752 38.252C288.528 38.3547 288.35 38.5647 288.22 38.882C288.098 39.1993 288.014 39.6753 287.968 40.31H287.646C287.674 40.0953 287.688 39.806 287.688 39.442C287.688 38.9753 287.655 38.434 287.59 37.818H288.934C289.363 37.818 289.69 37.8227 289.914 37.832L291.006 37.846C291.258 37.846 291.626 37.8367 292.112 37.818L293.106 37.804H294.45ZM299.542 40.8C300.512 40.8 301.222 40.982 301.67 41.346C302.127 41.7007 302.356 42.186 302.356 42.802C302.356 43.1753 302.253 43.53 302.048 43.866C301.842 44.1927 301.511 44.4633 301.054 44.678C300.606 44.8927 300.032 45 299.332 45C299.182 45 298.912 44.9907 298.52 44.972C298.09 44.9533 297.745 44.944 297.484 44.944C297.241 44.944 296.69 44.9627 295.832 45V44.706C296.224 44.706 296.499 44.636 296.658 44.496C296.816 44.3467 296.896 44.0807 296.896 43.698V39.106C296.896 38.7233 296.826 38.462 296.686 38.322C296.555 38.1727 296.317 38.098 295.972 38.098V37.804C296.756 37.8413 297.278 37.86 297.54 37.86C297.801 37.86 298.361 37.8413 299.22 37.804V38.098C298.828 38.098 298.552 38.1727 298.394 38.322C298.235 38.462 298.156 38.7233 298.156 39.106V40.8H299.542ZM299.178 44.706C299.868 44.706 300.349 44.5427 300.62 44.216C300.9 43.88 301.04 43.4367 301.04 42.886C301.04 42.242 300.858 41.7753 300.494 41.486C300.13 41.1873 299.537 41.038 298.716 41.038H298.156V43.698C298.156 44.0713 298.23 44.3327 298.38 44.482C298.529 44.6313 298.795 44.706 299.178 44.706ZM305.148 34.052C305.335 34.052 305.489 34.1173 305.61 34.248C305.732 34.3787 305.792 34.5747 305.792 34.836C305.792 35.3213 305.727 36.152 305.596 37.328C305.484 38.4667 305.4 39.386 305.344 40.086C305.298 40.7767 305.274 41.5 305.274 42.256H305.022C305.022 41.5 304.994 40.7767 304.938 40.086C304.892 39.386 304.812 38.4667 304.7 37.328C304.57 36.152 304.504 35.3213 304.504 34.836C304.504 34.5653 304.56 34.3693 304.672 34.248C304.794 34.1173 304.952 34.052 305.148 34.052ZM305.148 43.404C305.391 43.404 305.601 43.4927 305.778 43.67C305.956 43.8473 306.044 44.0573 306.044 44.3C306.044 44.5427 305.956 44.7527 305.778 44.93C305.601 45.1073 305.391 45.196 305.148 45.196C304.906 45.196 304.696 45.1073 304.518 44.93C304.341 44.7527 304.252 44.5427 304.252 44.3C304.252 44.0573 304.341 43.8473 304.518 43.67C304.696 43.4927 304.906 43.404 305.148 43.404Z" fill="black"/>
<path d="M102.67 66.83H99.66L98.918 69H97L100.528 59.13H101.942L105.47 69H103.454L102.67 66.83ZM100.15 65.29H102.25L101.522 63.106L101.228 61.566H101.158L100.864 63.12L100.15 65.29ZM109.346 63.526L109.626 64.8H109.71L109.934 63.484L111.404 59.2H113.378L110.774 65.976C110.569 66.508 110.368 66.97 110.172 67.362C109.985 67.754 109.78 68.0807 109.556 68.342C109.341 68.594 109.099 68.7853 108.828 68.916C108.557 69.0373 108.24 69.098 107.876 69.098C107.568 69.098 107.316 69.0747 107.12 69.028C106.933 68.9907 106.728 68.902 106.504 68.762L106.994 67.208C107.153 67.292 107.297 67.3433 107.428 67.362C107.559 67.3807 107.699 67.39 107.848 67.39C108.287 67.39 108.595 67.0447 108.772 66.354L105.104 59.2H107.358L109.346 63.526ZM117.009 64.814H116.505V69H114.587V59.2H116.505V63.54L116.953 63.344L119.655 59.2H121.839L118.983 63.316L118.227 63.848L119.011 64.394L122.273 69H119.907L117.009 64.814ZM132.299 70.75H130.941L130.731 69H123.829V59.2H125.747V67.292H129.121V59.2H131.039V67.292H132.299V70.75ZM139.644 63.568L139.756 62.294H139.686L139.028 63.61L135.374 69H133.932V59.2H135.85V64.534L135.71 65.85H135.794L136.48 64.492L140.134 59.2H141.562V69H139.644V63.568ZM143.508 64.1C143.508 62.4667 143.867 61.2113 144.586 60.334C145.304 59.4473 146.331 59.004 147.666 59.004C148.366 59.004 148.977 59.1253 149.5 59.368C150.022 59.6107 150.456 59.956 150.802 60.404C151.147 60.852 151.404 61.3887 151.572 62.014C151.74 62.6393 151.824 63.3347 151.824 64.1C151.824 65.7333 151.46 66.9933 150.732 67.88C150.013 68.7573 148.991 69.196 147.666 69.196C146.956 69.196 146.34 69.0747 145.818 68.832C145.295 68.5893 144.861 68.244 144.516 67.796C144.18 67.348 143.928 66.8113 143.76 66.186C143.592 65.5607 143.508 64.8653 143.508 64.1ZM145.524 64.1C145.524 64.5947 145.566 65.052 145.65 65.472C145.734 65.8827 145.86 66.2373 146.028 66.536C146.205 66.8347 146.429 67.068 146.7 67.236C146.97 67.404 147.292 67.488 147.666 67.488C148.347 67.488 148.874 67.222 149.248 66.69C149.621 66.158 149.808 65.2947 149.808 64.1C149.808 63.624 149.766 63.1807 149.682 62.77C149.607 62.3593 149.486 62 149.318 61.692C149.15 61.384 148.93 61.146 148.66 60.978C148.389 60.8007 148.058 60.712 147.666 60.712C146.984 60.712 146.457 60.9873 146.084 61.538C145.71 62.0793 145.524 62.9333 145.524 64.1ZM159.257 64.898H155.673V69H153.755V59.2H155.673V63.19H159.257V59.2H161.175V69H159.257V64.898ZM173.037 64.898H169.453V69H167.535V59.2H169.453V63.19H173.037V59.2H174.955V69H173.037V64.898ZM177.214 59.2H183.024V60.908H179.132V63.19H182.674V64.898H179.132V67.292H183.094V69H177.214V59.2ZM193.684 70.75H192.326L192.116 69H185.816L185.606 70.75H184.248V67.292H185.284C185.35 67.1893 185.457 66.9607 185.606 66.606C185.756 66.2513 185.905 65.752 186.054 65.108C186.204 64.4547 186.33 63.6427 186.432 62.672C186.535 61.692 186.582 60.5347 186.572 59.2H192.438V67.292H193.684V70.75ZM190.52 67.292V60.908H188.35C188.294 62.5693 188.159 63.932 187.944 64.996C187.739 66.0507 187.529 66.816 187.314 67.292H190.52ZM201.922 61.482C201.922 61.7247 201.889 61.9673 201.824 62.21C201.768 62.4527 201.67 62.6767 201.53 62.882C201.39 63.078 201.208 63.2553 200.984 63.414C200.76 63.5633 200.489 63.6753 200.172 63.75V63.834C200.452 63.8807 200.718 63.96 200.97 64.072C201.222 64.184 201.441 64.338 201.628 64.534C201.815 64.73 201.959 64.968 202.062 65.248C202.174 65.528 202.23 65.8593 202.23 66.242C202.23 66.746 202.123 67.1847 201.908 67.558C201.693 67.922 201.404 68.2207 201.04 68.454C200.685 68.6873 200.279 68.86 199.822 68.972C199.365 69.084 198.893 69.14 198.408 69.14C198.249 69.14 198.044 69.14 197.792 69.14C197.549 69.14 197.283 69.1307 196.994 69.112C196.714 69.1027 196.425 69.084 196.126 69.056C195.837 69.028 195.571 68.986 195.328 68.93V59.27C195.505 59.242 195.706 59.214 195.93 59.186C196.163 59.158 196.411 59.1347 196.672 59.116C196.933 59.0973 197.199 59.0833 197.47 59.074C197.75 59.0647 198.025 59.06 198.296 59.06C198.753 59.06 199.197 59.0973 199.626 59.172C200.065 59.2373 200.452 59.3587 200.788 59.536C201.133 59.7133 201.409 59.9607 201.614 60.278C201.819 60.5953 201.922 60.9967 201.922 61.482ZM198.422 67.558C198.655 67.558 198.879 67.53 199.094 67.474C199.318 67.418 199.514 67.334 199.682 67.222C199.85 67.1007 199.985 66.9513 200.088 66.774C200.191 66.5967 200.242 66.3867 200.242 66.144C200.242 65.836 200.181 65.5933 200.06 65.416C199.939 65.2387 199.78 65.1033 199.584 65.01C199.388 64.9073 199.169 64.842 198.926 64.814C198.683 64.786 198.441 64.772 198.198 64.772H197.176V67.474C197.223 67.4927 197.297 67.5067 197.4 67.516C197.503 67.5253 197.61 67.5347 197.722 67.544C197.843 67.544 197.965 67.5487 198.086 67.558C198.217 67.558 198.329 67.558 198.422 67.558ZM197.792 63.316C197.923 63.316 198.072 63.3113 198.24 63.302C198.417 63.2927 198.562 63.2787 198.674 63.26C199.029 63.148 199.332 62.98 199.584 62.756C199.845 62.532 199.976 62.238 199.976 61.874C199.976 61.6313 199.929 61.4307 199.836 61.272C199.743 61.1133 199.617 60.9873 199.458 60.894C199.309 60.8007 199.136 60.7353 198.94 60.698C198.744 60.6607 198.539 60.642 198.324 60.642C198.081 60.642 197.857 60.6467 197.652 60.656C197.447 60.6653 197.288 60.6793 197.176 60.698V63.316H197.792ZM209.872 63.568L209.984 62.294H209.914L209.256 63.61L205.602 69H204.16V59.2H206.078V64.534L205.938 65.85H206.022L206.708 64.492L210.362 59.2H211.79V69H209.872V63.568ZM218.104 59.2H219.924V63.554L220.414 63.358L222.444 59.2H224.6L222.318 63.498L221.66 63.974L222.458 64.562L225.034 69H222.724L220.47 64.744H219.924V69H218.104V64.576L217.6 64.772L215.346 69H213.106L215.668 64.702L216.424 64.156L215.696 63.638L213.302 59.2H215.528L217.558 63.386H218.104V59.2ZM232.06 63.568L232.172 62.294H232.102L231.444 63.61L227.79 69H226.348V59.2H228.266V64.534L228.126 65.85H228.21L228.896 64.492L232.55 59.2H233.978V69H232.06V63.568ZM243.834 63.918L244.044 61.972H243.96L243.358 63.54L241.272 67.194H240.656L238.458 63.526L237.842 61.972H237.772L238.052 63.904V69H236.232V59.2H237.982L240.6 63.68L241.062 64.8H241.118L241.538 63.652L244.016 59.2H245.752V69H243.834V63.918ZM247.681 64.1C247.681 62.4667 248.041 61.2113 248.759 60.334C249.478 59.4473 250.505 59.004 251.839 59.004C252.539 59.004 253.151 59.1253 253.673 59.368C254.196 59.6107 254.63 59.956 254.975 60.404C255.321 60.852 255.577 61.3887 255.745 62.014C255.913 62.6393 255.997 63.3347 255.997 64.1C255.997 65.7333 255.633 66.9933 254.905 67.88C254.187 68.7573 253.165 69.196 251.839 69.196C251.13 69.196 250.514 69.0747 249.991 68.832C249.469 68.5893 249.035 68.244 248.689 67.796C248.353 67.348 248.101 66.8113 247.933 66.186C247.765 65.5607 247.681 64.8653 247.681 64.1ZM249.697 64.1C249.697 64.5947 249.739 65.052 249.823 65.472C249.907 65.8827 250.033 66.2373 250.201 66.536C250.379 66.8347 250.603 67.068 250.873 67.236C251.144 67.404 251.466 67.488 251.839 67.488C252.521 67.488 253.048 67.222 253.421 66.69C253.795 66.158 253.981 65.2947 253.981 64.1C253.981 63.624 253.939 63.1807 253.855 62.77C253.781 62.3593 253.659 62 253.491 61.692C253.323 61.384 253.104 61.146 252.833 60.978C252.563 60.8007 252.231 60.712 251.839 60.712C251.158 60.712 250.631 60.9873 250.257 61.538C249.884 62.0793 249.697 62.9333 249.697 64.1ZM264.564 68.594C264.266 68.8087 263.883 68.9627 263.416 69.056C262.959 69.1493 262.488 69.196 262.002 69.196C261.414 69.196 260.854 69.1073 260.322 68.93C259.8 68.7433 259.338 68.4493 258.936 68.048C258.535 67.6373 258.213 67.11 257.97 66.466C257.737 65.8127 257.62 65.024 257.62 64.1C257.62 63.1387 257.751 62.336 258.012 61.692C258.283 61.0387 258.628 60.516 259.048 60.124C259.478 59.7227 259.954 59.438 260.476 59.27C260.999 59.0927 261.522 59.004 262.044 59.004C262.604 59.004 263.076 59.0413 263.458 59.116C263.85 59.1907 264.172 59.2793 264.424 59.382L264.046 61.006C263.832 60.9033 263.575 60.8287 263.276 60.782C262.987 60.7353 262.632 60.712 262.212 60.712C261.438 60.712 260.812 60.9873 260.336 61.538C259.87 62.0887 259.636 62.9427 259.636 64.1C259.636 64.604 259.692 65.066 259.804 65.486C259.916 65.8967 260.084 66.2513 260.308 66.55C260.542 66.8393 260.826 67.068 261.162 67.236C261.508 67.3947 261.904 67.474 262.352 67.474C262.772 67.474 263.127 67.432 263.416 67.348C263.706 67.264 263.958 67.1567 264.172 67.026L264.564 68.594ZM273.185 60.908H270.329V69H268.411V60.908H265.541V59.2H273.185V60.908ZM280.456 63.568L280.568 62.294H280.498L279.84 63.61L276.186 69H274.744V59.2H276.662V64.534L276.522 65.85H276.606L277.292 64.492L280.946 59.2H282.374V69H280.456V63.568Z" fill="white"/>
</svg>
